<svg width="21" height="21" viewBox="0 0 21 21" fill="none" xmlns="http://www.w3.org/2000/svg">
<path fill-rule="evenodd" clip-rule="evenodd" d="M7.25023 2.99981C5.85779 2.99981 4.52239 3.55295 3.53779 4.53755C2.55319 5.52215 2.00005 6.85755 2.00005 8.24998V14.2502C2.00005 15.6426 2.55319 16.978 3.53779 17.9626C4.52239 18.9472 5.85779 19.5004 7.25023 19.5004H13.2504C14.6429 19.5004 15.9783 18.9472 16.9629 17.9626C17.9475 16.978 18.5006 15.6426 18.5006 14.2502V11.2501C18.5006 10.8359 18.8364 10.5001 19.2506 10.5001C19.6649 10.5001 20.0007 10.8359 20.0007 11.2501V14.2502C20.0007 16.0405 19.2895 17.7574 18.0236 19.0233C16.7577 20.2892 15.0407 21.0004 13.2504 21.0004H7.25023C5.45996 21.0004 3.74301 20.2892 2.4771 19.0233C1.21118 17.7574 0.5 16.0405 0.5 14.2502V8.24998C0.5 6.45971 1.21118 4.74277 2.4771 3.47685C3.74301 2.21094 5.45996 1.49976 7.25023 1.49976H10.2503C10.6646 1.49976 11.0004 1.83555 11.0004 2.24978C11.0004 2.66401 10.6646 2.99981 10.2503 2.99981H7.25023Z" fill="#0F314B"/>
<path d="M14.5984 1.59814C15.3017 0.894857 16.2555 0.499756 17.2501 0.499756C18.2447 0.499756 19.1986 0.894857 19.9019 1.59814C20.6052 2.30143 21.0003 3.25529 21.0003 4.24988C21.0003 5.24448 20.6052 6.19834 19.9019 6.90162C19.1986 7.60491 18.2447 8.00001 17.2501 8.00001C16.2555 8.00001 15.3017 7.60491 14.5984 6.90162C13.8951 6.19834 13.5 5.24448 13.5 4.24988C13.5 3.25529 13.8951 2.30143 14.5984 1.59814Z" fill="#3062F9"/>
</svg>
