<svg width="101" height="47" viewBox="0 0 101 47" fill="none" xmlns="http://www.w3.org/2000/svg">
<g clip-path="url(#clip0_1_170)">
<path d="M48.4233 16.4896C47.5828 13.8424 46.2987 11.3458 44.6397 9.13317C42.9783 6.92301 40.9248 5.02154 38.6311 3.50777C37.4794 2.75706 36.264 2.11253 35.0069 1.56679C33.7498 1.02351 32.4486 0.579009 31.1155 0.267859C28.4543 -0.35691 25.6877 -0.532241 22.9799 -0.221091C20.2721 0.0925289 17.6232 0.870404 15.1776 2.06808C12.7345 3.27317 10.5045 4.90054 8.60784 6.8514C6.71362 8.8072 5.17717 11.1013 4.04505 13.5732C2.93253 16.055 2.21944 18.7196 2.0038 21.4285C1.7857 24.135 2.02585 26.8737 2.71199 29.4937C3.40792 32.1089 4.54249 34.6006 6.05444 36.8305C7.56884 39.0604 9.47532 41.0063 11.6391 42.5843C12.7222 43.3745 13.8788 44.0536 15.0771 44.6438C16.2779 45.229 17.5202 45.7279 18.8018 46.0909C21.3626 46.8268 24.0434 47.128 26.6948 46.9502C29.3438 46.77 31.9585 46.1378 34.3918 45.0883C36.8227 44.0314 39.0673 42.5522 41.0032 40.7421C42.9391 38.932 44.5344 36.7712 45.7547 34.4203C44.4951 36.749 42.8656 38.8727 40.9101 40.6383C38.9546 42.4015 36.7051 43.8264 34.2864 44.829C31.8629 45.8242 29.2777 46.402 26.6728 46.5304C24.0655 46.6589 21.4459 46.3156 18.9587 45.555C17.7138 45.1797 16.5106 44.6709 15.3516 44.0807C14.1949 43.4856 13.0824 42.8065 12.0459 42.0212C9.97521 40.4531 8.16431 38.5368 6.74058 36.3613C5.3193 34.1857 4.27049 31.7706 3.64807 29.2493C3.033 26.7255 2.85166 24.1029 3.10406 21.5273C3.35401 18.9492 4.07935 16.4328 5.17227 14.0992C6.28724 11.7755 7.77713 9.63693 9.59049 7.82683C11.4087 6.02167 13.5284 4.53012 15.8343 3.44357C18.1451 2.36442 20.6299 1.68285 23.1564 1.43344C25.6828 1.18649 28.2436 1.3964 30.694 2.0187C31.9217 2.32491 33.1151 2.75953 34.2668 3.28058C35.4161 3.8041 36.5286 4.419 37.575 5.12773C39.6579 6.55754 41.508 8.32813 42.9906 10.3753C44.4706 12.4225 45.6003 14.7191 46.3232 17.1391V17.144C46.4996 17.7318 47.1147 18.0651 47.6979 17.8873C48.2811 17.7095 48.612 17.0897 48.4355 16.502C48.4355 16.4971 48.4306 16.4872 48.4306 16.4847L48.4233 16.4896Z" fill="url(#paint0_linear_1_170)"/>
<path d="M41.0581 10.7061C39.5707 8.92814 37.777 7.41437 35.7872 6.2562C33.7998 5.09556 31.614 4.28312 29.3595 3.86578C24.8482 3.0237 20.082 3.81639 16.1049 6.04877C15.11 6.60193 14.1592 7.24151 13.2721 7.95518C12.3851 8.66885 11.5666 9.46895 10.8168 10.3258C10.0694 11.1852 9.39302 12.1063 8.8 13.0768C8.21434 14.0522 7.70709 15.0746 7.28806 16.1315C5.60212 20.3617 5.45755 25.1672 6.83962 29.469C7.18023 30.5457 7.61152 31.5927 8.12612 32.5953C8.64562 33.5954 9.24844 34.5486 9.92723 35.445C10.606 36.3414 11.3608 37.1761 12.1768 37.9416C12.9952 38.7072 13.8848 39.3912 14.8208 40.0012C15.7594 40.6062 16.7371 41.147 17.7639 41.5791C18.7882 42.0162 19.8468 42.3644 20.9274 42.6213C23.0888 43.1423 25.3359 43.2534 27.5315 43.0015C28.6293 42.8731 29.7173 42.6558 30.7759 42.3422C31.8345 42.0261 32.8662 41.6211 33.8537 41.1322C34.8437 40.6432 35.7896 40.0703 36.6816 39.4208C37.5736 38.7714 38.4018 38.038 39.1664 37.2428C42.2393 34.072 44.1482 29.8147 44.4913 25.4314C44.0551 29.8073 42.0604 33.9881 38.9703 37.0477C38.2009 37.8132 37.3702 38.5195 36.4806 39.1369C35.5911 39.7542 34.6501 40.2975 33.6724 40.7543C32.6947 41.2137 31.6802 41.5866 30.6411 41.873C29.6021 42.1595 28.5386 42.3471 27.4702 42.4484C23.1892 42.8731 18.798 41.7322 15.2693 39.3073C14.3871 38.7047 13.549 38.033 12.7845 37.2872C12.0199 36.5415 11.3191 35.729 10.6918 34.8647C10.0645 34.0004 9.51064 33.0843 9.0377 32.1261C8.56966 31.1655 8.18493 30.1678 7.88352 29.1455C6.66318 25.0561 6.90333 20.5592 8.5525 16.66C8.96173 15.6845 9.45428 14.7462 10.0154 13.8522C10.584 12.9632 11.2284 12.1261 11.9342 11.3482C12.6424 10.5728 13.4118 9.85172 14.2401 9.21213C15.0708 8.57254 15.953 8.00704 16.8768 7.51809C17.8006 7.02914 18.7637 6.62168 19.7537 6.29571C20.7437 5.97222 21.7631 5.74009 22.7923 5.59192C24.8482 5.30053 26.9532 5.34745 28.9797 5.77713C31.0063 6.19694 32.9569 6.96987 34.7212 8.05149C36.4855 9.13064 38.0563 10.516 39.3477 12.1261C39.73 12.6027 40.4235 12.6768 40.8989 12.2915C41.3718 11.9063 41.4453 11.2074 41.063 10.7284C41.0581 10.7234 41.0508 10.7136 41.0483 10.7111L41.0581 10.7061Z" fill="url(#paint1_linear_1_170)"/>
<path d="M32.3745 9.30111C30.6983 8.51335 28.8948 8.01453 27.0643 7.83426C25.2337 7.65399 23.3763 7.81203 21.6046 8.26394C19.8378 8.73314 18.147 9.48879 16.6399 10.5235C15.1353 11.5607 13.8072 12.8522 12.7436 14.3363C11.6801 15.8204 10.8715 17.4848 10.3569 19.2357C9.84717 20.989 9.64133 22.8287 9.73935 24.6487C9.84227 26.4687 10.2687 28.264 10.9621 29.9358C11.6679 31.6027 12.6432 33.1584 13.8586 34.4845C15.0741 35.8131 16.5076 36.9268 18.0808 37.7664C19.6565 38.6011 21.3669 39.1616 23.1165 39.4209C24.8686 39.6777 26.655 39.616 28.3802 39.2629C29.2427 39.0851 30.0833 38.8233 30.8993 38.4998C31.7128 38.1739 32.5068 37.7886 33.2517 37.3219C34.7416 36.3959 36.0771 35.2179 37.1651 33.8425C38.2532 32.467 39.1059 30.9063 39.6769 29.2493C40.2454 27.5898 40.5272 25.834 40.5125 24.0857C40.5003 22.3348 40.167 20.5939 39.5789 18.9566C40.1229 20.6112 40.4071 22.3497 40.3753 24.0857C40.3434 25.8192 40.0175 27.5404 39.4171 29.1554C38.8119 30.768 37.937 32.2694 36.8441 33.5782C35.7488 34.887 34.428 35.9909 32.9675 36.8453C32.2397 37.275 31.4653 37.6256 30.6763 37.917C29.8848 38.206 29.0712 38.4356 28.2429 38.5813C26.5889 38.8727 24.8882 38.8875 23.2366 38.5986C21.5874 38.3097 19.9897 37.7343 18.5317 36.9144C17.0761 36.0872 15.7651 35.008 14.6697 33.7461C13.5719 32.4843 12.7118 31.0223 12.0992 29.4691C11.5012 27.9084 11.1557 26.2538 11.1043 24.5919C11.0577 22.93 11.2905 21.2656 11.7929 19.6925C12.3001 18.122 13.072 16.6428 14.0596 15.3364C15.0495 14.0326 16.265 12.9139 17.6226 12.0298C18.9826 11.1458 20.497 10.521 22.0653 10.1506C23.636 9.795 25.2607 9.70363 26.8511 9.90365C28.4414 10.1037 29.995 10.5803 31.4286 11.3014H31.431C31.975 11.5755 32.6318 11.3532 32.8989 10.8025C33.166 10.2543 32.943 9.58756 32.399 9.31346C32.3916 9.31099 32.3794 9.30358 32.372 9.30111H32.3745Z" fill="url(#paint2_linear_1_170)"/>
<path d="M24.31 11.7508C22.9329 11.899 21.5802 12.2743 20.3378 12.8843C19.0954 13.4942 17.9608 14.3166 16.9953 15.3093C16.0347 16.3045 15.2432 17.4626 14.6625 18.7221C14.0817 19.9815 13.7264 21.3421 13.5965 22.7201C13.4715 24.1005 13.5843 25.4933 13.9151 26.8292C14.2532 28.1627 14.8095 29.437 15.5643 30.5705C16.319 31.7039 17.26 32.6991 18.3333 33.5066C19.4091 34.3117 20.6147 34.9241 21.884 35.3167C23.1534 35.7094 24.4865 35.86 25.7999 35.7933C27.1134 35.7168 28.4121 35.418 29.6178 34.8994C30.821 34.3783 31.9335 33.6499 32.8916 32.751C33.8448 31.8496 34.6462 30.7878 35.2514 29.6222C35.8567 28.4566 36.2512 27.1824 36.435 25.8859C36.6163 24.587 36.5624 23.2584 36.3125 21.9817C36.0478 20.705 35.5798 19.4752 34.9133 18.3665C34.2467 17.2601 33.3989 16.2748 32.4187 15.4599C33.3695 16.3094 34.1757 17.3194 34.7956 18.4356C35.4132 19.5518 35.8297 20.7766 36.0429 22.0311C36.2439 23.2881 36.2488 24.5746 36.0307 25.8192C35.8101 27.0638 35.3887 28.2665 34.7736 29.353C34.1585 30.442 33.3646 31.4175 32.4383 32.2299C31.5071 33.0399 30.446 33.682 29.3115 34.124C28.1769 34.5635 26.9688 34.7932 25.7632 34.8204C24.5551 34.8352 23.3494 34.6549 22.2124 34.2549C21.0778 33.8573 20.0119 33.2646 19.0733 32.509C18.1397 31.7484 17.3335 30.8322 16.7037 29.8074C16.074 28.7826 15.628 27.6466 15.3731 26.4761C15.1256 25.3007 15.0717 24.0857 15.2212 22.9028C15.3756 21.7224 15.7211 20.5692 16.2528 19.5172C16.7846 18.4652 17.4928 17.5096 18.3308 16.7021C19.1714 15.897 20.1467 15.2451 21.193 14.7784C22.2418 14.3116 23.3666 14.0449 24.5012 13.9634H24.511C25.1113 13.919 25.5598 13.3881 25.5157 12.7756C25.4716 12.1632 24.9496 11.7014 24.3517 11.7459C24.3394 11.7459 24.3247 11.7459 24.3149 11.7483L24.31 11.7508Z" fill="url(#paint3_linear_1_170)"/>
<path d="M31.744 19.792C32.6507 19.792 33.3813 20.0853 33.936 20.672C34.4907 21.2587 34.768 22.048 34.768 23.04V28H33.04V23.152C33.04 22.5973 32.9013 22.1707 32.624 21.872C32.3467 21.5627 31.968 21.408 31.488 21.408C30.9547 21.408 30.528 21.584 30.208 21.936C29.8987 22.288 29.744 22.816 29.744 23.52V28H28.016V23.152C28.016 22.5973 27.8827 22.1707 27.616 21.872C27.36 21.5627 26.992 21.408 26.512 21.408C25.9893 21.408 25.5627 21.5893 25.232 21.952C24.9013 22.304 24.736 22.8267 24.736 23.52V28H23.008V20H24.736V20.96C25.248 20.1813 26.0107 19.792 27.024 19.792C28.048 19.792 28.8053 20.2133 29.296 21.056C29.8293 20.2133 30.6453 19.792 31.744 19.792ZM42.9534 20H44.6814V28H42.9534V26.848C42.3027 27.7547 41.3694 28.208 40.1534 28.208C39.0547 28.208 38.116 27.8027 37.3374 26.992C36.5587 26.1707 36.1694 25.1733 36.1694 24C36.1694 22.816 36.5587 21.8187 37.3374 21.008C38.116 20.1973 39.0547 19.792 40.1534 19.792C41.3694 19.792 42.3027 20.24 42.9534 21.136V20ZM38.6174 25.84C39.0974 26.32 39.7 26.56 40.4254 26.56C41.1507 26.56 41.7534 26.32 42.2334 25.84C42.7134 25.3493 42.9534 24.736 42.9534 24C42.9534 23.264 42.7134 22.656 42.2334 22.176C41.7534 21.6853 41.1507 21.44 40.4254 21.44C39.7 21.44 39.0974 21.6853 38.6174 22.176C38.1374 22.656 37.8974 23.264 37.8974 24C37.8974 24.736 38.1374 25.3493 38.6174 25.84ZM50.4715 28.208C49.2662 28.208 48.2582 27.8027 47.4475 26.992C46.6475 26.1813 46.2475 25.184 46.2475 24C46.2475 22.8053 46.6475 21.808 47.4475 21.008C48.2582 20.1973 49.2662 19.792 50.4715 19.792C51.2502 19.792 51.9595 19.9787 52.5995 20.352C53.2395 20.7253 53.7195 21.2267 54.0395 21.856L52.5515 22.72C52.3702 22.336 52.0928 22.0373 51.7195 21.824C51.3568 21.6 50.9355 21.488 50.4555 21.488C49.7515 21.488 49.1595 21.728 48.6795 22.208C48.2102 22.688 47.9755 23.2853 47.9755 24C47.9755 24.7147 48.2102 25.312 48.6795 25.792C49.1595 26.272 49.7515 26.512 50.4555 26.512C50.9248 26.512 51.3462 26.4 51.7195 26.176C52.1035 25.952 52.3915 25.6533 52.5835 25.28L54.0715 26.128C53.7302 26.768 53.2395 27.2747 52.5995 27.648C51.9595 28.0213 51.2502 28.208 50.4715 28.208ZM61.5315 20H63.2595V28H61.5315V26.848C60.8808 27.7547 59.9475 28.208 58.7315 28.208C57.6328 28.208 56.6942 27.8027 55.9155 26.992C55.1368 26.1707 54.7475 25.1733 54.7475 24C54.7475 22.816 55.1368 21.8187 55.9155 21.008C56.6942 20.1973 57.6328 19.792 58.7315 19.792C59.9475 19.792 60.8808 20.24 61.5315 21.136V20ZM57.1955 25.84C57.6755 26.32 58.2782 26.56 59.0035 26.56C59.7288 26.56 60.3315 26.32 60.8115 25.84C61.2915 25.3493 61.5315 24.736 61.5315 24C61.5315 23.264 61.2915 22.656 60.8115 22.176C60.3315 21.6853 59.7288 21.44 59.0035 21.44C58.2782 21.44 57.6755 21.6853 57.1955 22.176C56.7155 22.656 56.4755 23.264 56.4755 24C56.4755 24.736 56.7155 25.3493 57.1955 25.84ZM71.6096 20H73.3376V28H71.6096V26.848C70.959 27.7547 70.0256 28.208 68.8096 28.208C67.711 28.208 66.7723 27.8027 65.9936 26.992C65.215 26.1707 64.8256 25.1733 64.8256 24C64.8256 22.816 65.215 21.8187 65.9936 21.008C66.7723 20.1973 67.711 19.792 68.8096 19.792C70.0256 19.792 70.959 20.24 71.6096 21.136V20ZM67.2736 25.84C67.7536 26.32 68.3563 26.56 69.0816 26.56C69.807 26.56 70.4096 26.32 70.8896 25.84C71.3696 25.3493 71.6096 24.736 71.6096 24C71.6096 23.264 71.3696 22.656 70.8896 22.176C70.4096 21.6853 69.807 21.44 69.0816 21.44C68.3563 21.44 67.7536 21.6853 67.2736 22.176C66.7936 22.656 66.5536 23.264 66.5536 24C66.5536 24.736 66.7936 25.3493 67.2736 25.84ZM79.5598 19.792C80.4771 19.792 81.2184 20.0853 81.7838 20.672C82.3491 21.2587 82.6318 22.064 82.6318 23.088V28H80.9038V23.264C80.9038 22.6667 80.7438 22.208 80.4238 21.888C80.1038 21.568 79.6664 21.408 79.1118 21.408C78.5038 21.408 78.0131 21.6 77.6398 21.984C77.2664 22.3573 77.0798 22.9333 77.0798 23.712V28H75.3518V20H77.0798V21.024C77.6024 20.2027 78.4291 19.792 79.5598 19.792ZM86.3804 27.84C86.1457 28.0747 85.863 28.192 85.5324 28.192C85.2017 28.192 84.919 28.0747 84.6844 27.84C84.4497 27.6053 84.3324 27.3227 84.3324 26.992C84.3324 26.6613 84.4444 26.3787 84.6684 26.144C84.903 25.9093 85.191 25.792 85.5324 25.792C85.863 25.792 86.1457 25.9093 86.3804 26.144C86.615 26.3787 86.7324 26.6613 86.7324 26.992C86.7324 27.3227 86.615 27.6053 86.3804 27.84ZM94.2659 20H95.9939V28H94.2659V26.848C93.6152 27.7547 92.6819 28.208 91.4659 28.208C90.3672 28.208 89.4285 27.8027 88.6499 26.992C87.8712 26.1707 87.4819 25.1733 87.4819 24C87.4819 22.816 87.8712 21.8187 88.6499 21.008C89.4285 20.1973 90.3672 19.792 91.4659 19.792C92.6819 19.792 93.6152 20.24 94.2659 21.136V20ZM89.9299 25.84C90.4099 26.32 91.0125 26.56 91.7379 26.56C92.4632 26.56 93.0659 26.32 93.5459 25.84C94.0259 25.3493 94.2659 24.736 94.2659 24C94.2659 23.264 94.0259 22.656 93.5459 22.176C93.0659 21.6853 92.4632 21.44 91.7379 21.44C91.0125 21.44 90.4099 21.6853 89.9299 22.176C89.4499 22.656 89.2099 23.264 89.2099 24C89.2099 24.736 89.4499 25.3493 89.9299 25.84ZM99.64 18.48C99.4267 18.6933 99.1707 18.8 98.872 18.8C98.5733 18.8 98.312 18.6933 98.088 18.48C97.8747 18.256 97.768 17.9947 97.768 17.696C97.768 17.3973 97.8747 17.1413 98.088 16.928C98.3013 16.704 98.5627 16.592 98.872 16.592C99.1813 16.592 99.4427 16.704 99.656 16.928C99.8693 17.1413 99.976 17.3973 99.976 17.696C99.976 17.9947 99.864 18.256 99.64 18.48ZM98.008 28V20H99.736V28H98.008Z" fill="white"/>
</g>
<defs>
<linearGradient id="paint0_linear_1_170" x1="1.92293" y1="23.3127" x2="48.4772" y2="23.3127" gradientUnits="userSpaceOnUse">
<stop stop-color="#4993F3"/>
<stop offset="0.36" stop-color="#4D8DF2"/>
<stop offset="1" stop-color="#A800DD"/>
</linearGradient>
<linearGradient id="paint1_linear_1_170" x1="5.90108" y1="23.3299" x2="44.5011" y2="23.3299" gradientUnits="userSpaceOnUse">
<stop stop-color="#4993F3"/>
<stop offset="0.36" stop-color="#4D8DF2"/>
<stop offset="1" stop-color="#A800DD"/>
</linearGradient>
<linearGradient id="paint2_linear_1_170" x1="9.7124" y1="23.6708" x2="40.5101" y2="23.6708" gradientUnits="userSpaceOnUse">
<stop stop-color="#4993F3"/>
<stop offset="0.36" stop-color="#4D8DF2"/>
<stop offset="1" stop-color="#A800DD"/>
</linearGradient>
<linearGradient id="paint3_linear_1_170" x1="13.5451" y1="23.777" x2="36.5355" y2="23.777" gradientUnits="userSpaceOnUse">
<stop stop-color="#4993F3"/>
<stop offset="0.36" stop-color="#4D8DF2"/>
<stop offset="1" stop-color="#A800DD"/>
</linearGradient>
<clipPath id="clip0_1_170">
<rect width="101" height="47" fill="white"/>
</clipPath>
</defs>
</svg>
